<?xml version="1.0" encoding="UTF-8"?>
<!DOCTYPE svg PUBLIC "-//W3C//DTD SVG 1.1//EN" "http://www.w3.org/Graphics/SVG/1.1/DTD/svg11.dtd">
<!-- Creator: CorelDRAW 2019 (64-Bit) -->
<svg xmlns="http://www.w3.org/2000/svg" xml:space="preserve" width="60.0001mm" height="60mm" version="1.1" style="shape-rendering:geometricPrecision; text-rendering:geometricPrecision; image-rendering:optimizeQuality; fill-rule:evenodd; clip-rule:evenodd"
viewBox="0 0 6000.02 6000.01"
 xmlns:xlink="http://www.w3.org/1999/xlink">
 <defs>
  <style type="text/css">
   <![CDATA[
    .fil0 {fill:#FEFEFE}
   ]]>
  </style>
 </defs>
 <g id="Capa_x0020_1">
  <metadata id="CorelCorpID_0Corel-Layer"/>
  <g id="_2034224815904">
   <path class="fil0" d="M2964.71 50.19c-134.12,40.65 -367.06,231.37 -1461.18,1194.33 -1485.88,1306.88 -1503.53,1328.76 -1503.53,1753.96 0,425.21 17.65,447.09 1503.53,1753.97 1454.12,1278.74 1408.24,1247.47 1902.36,1247.47 384.71,0 571.76,-96.92 1104.7,-569.02l430.59 -384.57 -388.24 -343.92 -388.24 -340.79 861.18 -769.12c960.01,-856.66 974.13,-875.42 974.13,-1297.5 0,-381.43 -70.6,-472.1 -1083.54,-1366.28 -1009.41,-891.06 -1080,-931.7 -1528.24,-928.57 -144.71,0 -335.3,25.01 -423.53,50.02l0.01 0.02zm1182.36 1603.9l741.18 656.56 -769.42 681.59 -765.89 678.45 388.24 343.92 388.25 343.92 -370.6 328.29 -370.59 328.28 -1136.47 -1009.86 -1140 -1006.73 1129.42 -1000.48c621.18,-550.27 1136.47,-1000.48 1147.06,-1000.48 10.59,0 352.94,297.01 758.82,656.56l0 -0.02z"/>
  </g>
 </g>
</svg>
