<?xml version="1.0" encoding="UTF-8"?>
<!DOCTYPE svg PUBLIC "-//W3C//DTD SVG 1.1//EN" "http://www.w3.org/Graphics/SVG/1.1/DTD/svg11.dtd">
<!-- Creator: CorelDRAW 2019 (64-Bit) -->
<svg xmlns="http://www.w3.org/2000/svg" xml:space="preserve" width="59.9722mm" height="67.7007mm" version="1.1" style="shape-rendering:geometricPrecision; text-rendering:geometricPrecision; image-rendering:optimizeQuality; fill-rule:evenodd; clip-rule:evenodd"
viewBox="0 0 7726.49 8722.19"
 xmlns:xlink="http://www.w3.org/1999/xlink">
 <defs>
  <style type="text/css">
   <![CDATA[
    .fil0 {fill:#FEFEFE}
   ]]>
  </style>
 </defs>
 <g id="Capa_x0020_1">
  <metadata id="CorelCorpID_0Corel-Layer"/>
  <g id="_2034224815904">
   <path class="fil0" d="M3817.8 72.97c-172.72,59.08 -472.68,336.34 -1881.63,1736.19 -1913.44,1899.81 -1936.16,1931.62 -1936.16,2549.74 0,618.12 22.73,649.93 1936.16,2549.74 1872.53,1858.9 1813.45,1813.45 2449.75,1813.45 495.41,0 736.29,-140.89 1422.58,-827.19l554.49 -559.04 -499.96 -499.96 -499.96 -495.41 1108.98 -1118.06c1236.24,-1245.33 1254.42,-1272.6 1254.42,-1886.18 0,-554.49 -90.91,-686.29 -1395.32,-1986.16 -1299.86,-1295.33 -1390.77,-1354.41 -1967.99,-1349.86 -186.35,0 -431.78,36.36 -545.4,72.71l0.01 0.04zm1522.58 2331.58l954.44 954.44 -990.81 990.81 -986.27 986.27 499.96 499.96 499.96 499.96 -477.23 477.23 -477.23 477.23 -1463.48 -1468.03 -1468.03 -1463.48 1454.4 -1454.4c799.92,-799.92 1463.48,-1454.4 1477.13,-1454.4 13.63,0 454.5,431.78 977.17,954.44l0 -0.03z"/>
  </g>
 </g>
</svg>
